<svg width="16" height="28" viewBox="0 0 16 28" fill="none" xmlns="http://www.w3.org/2000/svg">
<path d="M8.63516 26.8291C8.23538 27.3085 7.49899 27.3085 7.09921 26.8291L0.235303 18.5988C-0.307832 17.9476 0.155267 16.9583 1.00328 16.9583L2.85778 16.9583C3.40983 16.9583 3.85745 16.511 3.85777 15.9589L3.8666 0.999413C3.86692 0.44736 4.31454 2.78749e-06 4.8666 2.83267e-06L10.8672 3.32371e-06C11.4195 3.3689e-06 11.8672 0.447717 11.8672 1L11.8672 15.9583C11.8672 16.5106 12.3149 16.9583 12.8672 16.9583L14.7311 16.9583C15.5791 16.9583 16.0422 17.9476 15.4991 18.5988L8.63516 26.8291Z" fill="#173EA5"/>
</svg>
